<?xml version="1.0" encoding="UTF-8"?>
<svg xmlns="http://www.w3.org/2000/svg" xmlns:xlink="http://www.w3.org/1999/xlink" width="459pt" height="175pt" viewBox="0 0 459 175" version="1.1">
<g id="surface54243">
<rect x="0" y="0" width="459" height="175" style="fill:rgb(100%,100%,100%);fill-opacity:1;stroke:none;"/>
<path style="fill:none;stroke-width:0.60706;stroke-linecap:round;stroke-linejoin:miter;stroke:rgb(0%,0%,0%);stroke-opacity:1;stroke-miterlimit:10;" d="M 1.500084 -13.000072 C 10.374603 -6.813358 22.560239 -8.807521 29 -17.500049 " transform="matrix(16.162407,0,0,16.162407,-16.143404,289.475741)"/>
<path style="fill:none;stroke-width:0.60706;stroke-linecap:round;stroke-linejoin:miter;stroke:rgb(0%,0%,0%);stroke-opacity:1;stroke-miterlimit:10;" d="M 1.400025 -13.000072 C 10.020048 -19.536507 22.284474 -17.981249 29 -9.499955 " transform="matrix(16.162407,0,0,16.162407,-16.143404,289.475741)"/>
<path style="fill:none;stroke-width:0.60706;stroke-linecap:butt;stroke-linejoin:miter;stroke:rgb(0%,0%,0%);stroke-opacity:1;stroke-miterlimit:10;" d="M 8.000024 -10.000006 L 7.600032 -7.399934 L 6.000061 -7.399934 " transform="matrix(16.162407,0,0,16.162407,-16.143404,289.475741)"/>
<path style="fill:none;stroke-width:0.60706;stroke-linecap:butt;stroke-linejoin:miter;stroke:rgb(0%,0%,0%);stroke-opacity:1;stroke-miterlimit:10;" d="M 19.799928 -10.600116 L 20.500096 -7.499992 L 18.999942 -7.499992 " transform="matrix(16.162407,0,0,16.162407,-16.143404,289.475741)"/>
<path style="fill:none;stroke-width:0.60706;stroke-linecap:butt;stroke-linejoin:miter;stroke:rgb(0%,0%,0%);stroke-opacity:1;stroke-miterlimit:10;" d="M 7.200039 -15.400028 C 7.200039 -14.935263 7.200039 -14.524394 7.200039 -14.161138 M 7.200039 -14.161138 L 7.200039 -11.400101 L 7.200039 -15.400028 M 5.736622 -14.161138 C 6.348816 -14.161138 6.826874 -14.161138 7.200039 -14.161138 M 7.200039 -14.161138 L 8.528353 -14.161138 L 5.736622 -14.161138 " transform="matrix(16.162407,0,0,16.162407,-16.143404,289.475741)"/>
</g>
</svg>
